# Aim Direction Cone Mesh (Base at Z=0, Apex at Z=2.2, Radius 0.45)
o AimCone
v 0.0 0.1 2.2
v 0.0 0.05 0.0
v 0.4500 0.0500 0.0000
v 0.4157 0.1074 0.0000
v 0.3182 0.1561 0.0000
v 0.1722 0.1886 0.0000
v 0.0000 0.2000 0.0000
v -0.1722 0.1886 0.0000
v -0.3182 0.1561 0.0000
v -0.4157 0.1074 0.0000
v -0.4500 0.0500 0.0000
v -0.4157 -0.0074 0.0000
v -0.3182 -0.0561 0.0000
v -0.1722 -0.0886 0.0000
v -0.0000 -0.1000 0.0000
v 0.1722 -0.0886 0.0000
v 0.3182 -0.0561 0.0000
v 0.4157 -0.0074 0.0000
vn 0.0 1.0 0.0
f 1 3 4
f 1 4 5
f 1 5 6
f 1 6 7
f 1 7 8
f 1 8 9
f 1 9 10
f 1 10 11
f 1 11 12
f 1 12 13
f 1 13 14
f 1 14 15
f 1 15 16
f 1 16 17
f 1 17 18
f 1 18 3
f 2 4 3
f 2 5 4
f 2 6 5
f 2 7 6
f 2 8 7
f 2 9 8
f 2 10 9
f 2 11 10
f 2 12 11
f 2 13 12
f 2 14 13
f 2 15 14
f 2 16 15
f 2 17 16
f 2 18 17
f 2 3 18
